<?xml version="1.0" standalone="no"?>
<!DOCTYPE svg PUBLIC "-//W3C//DTD SVG 20010904//EN"
 "http://www.w3.org/TR/2001/REC-SVG-20010904/DTD/svg10.dtd">
<svg version="1.0" xmlns="http://www.w3.org/2000/svg"
 width="2184.000000pt" height="2184.000000pt" viewBox="0 0 2184.000000 2184.000000"
 preserveAspectRatio="xMidYMid meet">
<metadata>
Created by potrace 1.14, written by Peter Selinger 2001-2017
</metadata>
<g transform="translate(0.000000,2184.000000) scale(0.100000,-0.100000)"
fill="#000000" stroke="none">
<path d="M10445 15709 c-2667 -764 -4860 -1391 -4872 -1394 l-23 -5 0 -3345 0
-3344 23 -7 c79 -25 9722 -2782 9724 -2780 2 1 2 2761 1 6133 l-3 6129 -4850
-1387z m3915 -1910 c0 -1939 -1 -2041 -17 -2037 -160 43 -7100 2032 -7105
2037 -7 6 7068 2037 7105 2040 16 1 17 -102 17 -2040z m-4263 -1806 c1976
-565 3591 -1028 3590 -1029 -4 -4 -7141 -2045 -7169 -2051 l-28 -5 0 2056 c0
1131 3 2056 8 2056 4 0 1623 -462 3599 -1027z m4263 -3864 l0 -2041 -27 5
c-16 3 -1617 460 -3560 1016 -1942 556 -3535 1011 -3539 1011 -4 0 -4 3 0 7 5
6 7095 2040 7119 2042 4 1 7 -918 7 -2040z"/>
</g>
</svg>
